<svg width="135" height="56" viewBox="0 0 135 56" fill="none" xmlns="http://www.w3.org/2000/svg">
<path d="M34.484 26.3682H40.2168V55.1797H34.484V26.3682Z" fill="#1A237E"/>
<path d="M63.7595 45.6171H47.7804C47.9358 46.8913 48.5415 48.068 49.4882 48.9349C50.4609 49.7332 51.6953 50.1419 52.9521 50.0818C53.8728 50.0957 54.7812 49.8685 55.587 49.4229C56.3497 49.0011 56.9888 48.3871 57.4409 47.642H63.4666C62.7456 49.8479 61.3452 51.7692 59.4658 53.1308C57.5738 54.5012 55.288 55.2203 52.9521 55.1797C51.4941 55.2203 50.0438 54.9546 48.6948 54.3998C47.3459 53.8451 46.1282 53.0135 45.1206 51.9589C44.0892 50.9122 43.279 49.6686 42.7384 48.3022C42.1977 46.9358 41.9377 45.4745 41.9738 44.0054C41.9658 42.7822 42.1469 41.5651 42.5107 40.3972C42.8382 39.2825 43.3584 38.2338 44.0476 37.2985C44.7009 36.393 45.4909 35.5945 46.3895 34.9317C47.3068 34.2571 48.3287 33.7379 49.4144 33.3947C50.5659 33.0289 51.768 32.8477 52.9762 32.8578C54.9793 32.8223 56.9539 33.337 58.6849 34.3458C60.326 35.3022 61.6689 36.696 62.5637 38.3715C63.4641 40.0862 63.9252 41.9975 63.9056 43.9341C63.8912 44.4976 63.8424 45.0596 63.7595 45.6171ZM49.7056 38.7375C48.7984 39.4944 48.1713 40.5338 47.9247 41.6893H58.1479C57.9208 40.8938 57.5301 40.1544 57.001 39.5184C56.5164 38.9423 55.9075 38.4835 55.2201 38.1765C54.4986 37.8571 53.7162 37.6987 52.9272 37.7125C51.7663 37.6652 50.6258 38.0281 49.7056 38.7375Z" fill="#1A237E"/>
<path d="M95.0599 35.8587C96.4922 37.5319 97.2412 39.6834 97.1578 41.8844V55.1806H91.4491V42.832C91.4491 39.9534 90.3755 38.5142 88.2284 38.5142C87.4574 38.4811 86.696 38.6953 86.0553 39.1254C85.4146 39.5555 84.928 40.179 84.6666 40.905C84.3328 41.8101 84.1753 42.7706 84.2026 43.7349V55.1763H78.5919V42.832C78.5919 39.9531 77.567 38.5142 75.4931 38.5142C74.9132 38.4862 74.3348 38.5952 73.8049 38.8326C73.275 39.0699 72.8086 39.4288 72.4433 39.8801C71.6493 40.9932 71.2617 42.3452 71.3454 43.7099V55.1514H65.6135V33.9833H69.6143L70.6633 36.6181C71.4351 35.6536 72.4098 34.8708 73.5181 34.3252C74.6046 33.7657 75.8088 33.473 77.0309 33.4712C78.2922 33.4486 79.5371 33.7601 80.6391 34.3742C81.6924 34.964 82.5621 35.8337 83.152 36.887C83.403 36.5332 83.6804 36.199 83.9818 35.887C84.2757 35.5849 84.5938 35.3074 84.9329 35.0571C85.2677 34.8148 85.6181 34.5946 85.9818 34.3982C86.3482 34.2005 86.7322 34.0372 87.1287 33.9103C87.5372 33.7817 87.9525 33.6759 88.3727 33.5933C88.8076 33.5164 89.2481 33.4756 89.6897 33.4712C90.7051 33.4511 91.7125 33.6545 92.6406 34.067C93.5686 34.4796 94.3946 35.0913 95.0599 35.8587Z" fill="#1A237E"/>
<path d="M120.456 45.6171H104.452C104.608 46.8913 105.213 48.068 106.16 48.9349C107.133 49.7332 108.367 50.1419 109.624 50.0818C110.545 50.0957 111.453 49.8685 112.259 49.4229C113.022 49.0011 113.661 48.3872 114.113 47.642H120.138C119.417 49.8479 118.017 51.7692 116.138 53.1308C114.246 54.5012 111.96 55.2203 109.624 55.1797C108.166 55.2203 106.716 54.9546 105.367 54.3998C104.018 53.8451 102.8 53.0135 101.793 51.9589C100.761 50.9122 99.9509 49.6686 99.4103 48.3022C98.8696 46.9358 98.6096 45.4745 98.6456 44.0054C98.6377 42.7822 98.8188 41.5651 99.1826 40.3972C99.5101 39.2825 100.03 38.2338 100.719 37.2985C101.373 36.393 102.163 35.5945 103.061 34.9317C103.979 34.2571 105.001 33.7379 106.086 33.3947C107.238 33.0289 108.44 32.8477 109.648 32.8578C111.651 32.8223 113.626 33.337 115.357 34.3458C116.998 35.3023 118.341 36.696 119.236 38.3715C120.136 40.0862 120.597 41.9975 120.577 43.9341C120.553 44.4702 120.529 45.0312 120.456 45.6171ZM106.403 38.7375C105.496 39.4944 104.869 40.5338 104.622 41.6893H114.846C114.618 40.8938 114.228 40.1544 113.699 39.5184C113.214 38.9423 112.605 38.4835 111.918 38.1765C111.196 37.857 110.414 37.6987 109.625 37.7125C108.463 37.6614 107.322 38.0246 106.403 38.7375Z" fill="#1A237E"/>
<path d="M135 33.8827V39.295H132.536C131.911 39.2347 131.28 39.3056 130.683 39.5031C130.087 39.7006 129.538 40.0204 129.072 40.4419C128.281 41.5175 127.908 42.8444 128.023 44.1747V55.1771H122.285V34.0047H125.969L126.994 36.5906C127.728 35.6873 128.665 34.9708 129.73 34.5001C130.794 34.0294 131.955 33.8178 133.117 33.8827H135Z" fill="#1A237E"/>
<path fill-rule="evenodd" clip-rule="evenodd" d="M6.79373 16.4396L0.865967 23.2703L9.69747 33.9557C11.8523 36.5652 13.0336 39.8421 13.0393 43.2262V55.1848H21.0659V38.0029C21.0626 34.4403 19.7517 31.0027 17.3821 28.3424L6.79373 16.4396Z" fill="#1A237E"/>
<path fill-rule="evenodd" clip-rule="evenodd" d="M33.6783 11.487L39.606 18.3176L26.9447 31.8329C24.3882 34.5648 22.9665 38.1669 22.9679 41.9084V50.2322H14.9423V37.4488C14.9391 33.7262 16.3519 30.1417 18.8941 27.4223L33.6783 11.487Z" fill="#FFAB00"/>
<path d="M15.9663 7.82722C15.9942 7.85733 16.0274 7.88207 16.0642 7.90023C16.1834 7.97469 16.3164 8.02435 16.4553 8.04624C16.5941 8.06813 16.7359 8.06181 16.8722 8.02765C17.0086 7.99349 17.1366 7.93218 17.2487 7.8474C17.3608 7.76263 17.4547 7.65613 17.5247 7.53426C17.624 7.37379 17.6786 7.1897 17.6828 7.00104C17.687 6.81238 17.6408 6.62602 17.5488 6.46126L18.2077 5.9458C19.6925 4.82244 21.3264 3.91107 23.0624 3.23792C23.856 3.84576 24.4968 4.63032 24.934 5.52924C25.3711 6.42816 25.5926 7.41667 25.5807 8.41619C25.5689 9.41571 25.3241 10.3987 24.8657 11.287C24.4074 12.1753 23.7482 12.9445 22.9404 13.5333C22.8902 14.2453 22.8007 14.954 22.6724 15.6561C24.0992 14.9706 25.2939 13.8821 26.109 12.5251C26.9242 11.1681 27.324 9.60214 27.2591 8.02051C27.235 7.7035 27.2101 7.3865 27.1612 7.09355C29.2101 4.82468 30.1379 2.6778 29.3321 1.57987C28.1371 -0.0300722 23.5994 1.31184 19.1836 4.55578C18.5033 5.04676 17.8516 5.57625 17.2317 6.14167C17.2077 6.11761 17.1828 6.11762 17.1587 6.09271C17.0395 6.01825 16.9065 5.96859 16.7677 5.9467C16.6289 5.92481 16.487 5.93113 16.3507 5.96529C16.2144 5.99945 16.0863 6.06076 15.9742 6.14553C15.8621 6.23031 15.7683 6.33681 15.6983 6.45868C15.5941 6.63717 15.5413 6.84093 15.5455 7.04753C15.5498 7.25414 15.6109 7.45556 15.7223 7.62963C15.7962 7.68203 15.8692 7.75419 15.9663 7.82722ZM27.4567 3.2405C27.9447 3.89943 27.7247 4.97244 26.9928 6.21641C26.627 4.89052 25.9398 3.67536 24.992 2.67866C26.1397 2.50856 27.0177 2.67951 27.4576 3.2405H27.4567Z" fill="#1A237E"/>
<path d="M15.8941 10.1691C16.675 10.5351 17.455 10.877 18.2136 11.145C18.2155 11.1583 18.2144 11.1717 18.2102 11.1844C18.206 11.1971 18.199 11.2086 18.1896 11.2181C18.1738 11.4993 18.2703 11.7754 18.4577 11.9857C18.6451 12.196 18.9083 12.3234 19.1895 12.34C19.3956 12.3532 19.6009 12.3044 19.7791 12.2C19.9573 12.0956 20.1002 11.9403 20.1895 11.7541C20.2366 11.6535 20.2696 11.5468 20.2875 11.4371C20.2875 11.3882 20.3115 11.3641 20.3115 11.3151C20.3272 11.0339 20.2308 10.7578 20.0434 10.5475C19.8559 10.3372 19.5928 10.2098 19.3115 10.1932C19.1236 10.1811 18.9359 10.2201 18.7683 10.306C18.6008 10.3919 18.4595 10.5215 18.3597 10.6811C18.1157 10.5591 17.8442 10.4612 17.5787 10.3375C15.8501 9.5294 14.2411 8.48696 12.797 7.2396C13.04 5.79027 13.7738 4.46851 14.8754 3.49581C15.9769 2.52312 17.3794 1.95862 18.8476 1.89689C19.7393 1.85349 20.6299 2.00324 21.4584 2.33589C22.067 1.98517 22.6943 1.66769 23.3373 1.38486C21.9441 0.537892 20.3277 0.131335 18.6996 0.218403C17.0715 0.305471 15.5077 0.882113 14.2128 1.87283C11.3099 1.18556 9.0651 1.38486 8.48006 2.58072C7.64759 4.41145 10.9414 7.77825 15.8941 10.1691ZM10.8933 3.46043C11.2369 2.75254 12.2102 2.43553 13.5771 2.46045C12.6142 3.37589 11.8933 4.51586 11.4792 5.77827C11.1818 5.48052 10.9703 5.10801 10.867 4.70005C10.7637 4.29209 10.7725 3.86382 10.8924 3.46043H10.8933Z" fill="#2962FF"/>
<path d="M15.894 15.7558C16.65 18.6346 17.8949 20.5616 19.2119 20.4885C21.2127 20.4155 22.6482 15.9018 22.4077 10.4131C22.3836 9.53508 22.2857 8.70519 22.1878 7.90022C22.2118 7.90022 22.2367 7.87617 22.2608 7.87617C22.5192 7.75932 22.7209 7.54481 22.8215 7.27961C22.9221 7.01442 22.9136 6.72014 22.7977 6.46124C22.7168 6.2721 22.5799 6.11228 22.4054 6.00324C22.2309 5.8942 22.0273 5.84118 21.8218 5.85128C21.7144 5.85377 21.6079 5.87023 21.5048 5.90025C21.4679 5.90629 21.4338 5.92337 21.4068 5.94922C21.1484 6.06607 20.9468 6.28058 20.8461 6.54577C20.7455 6.81097 20.754 7.10525 20.8699 7.36415C20.9478 7.53542 21.0705 7.68248 21.225 7.78983C21.3796 7.89719 21.5602 7.96085 21.7479 7.9741C21.772 8.24214 21.7969 8.5351 21.7969 8.82805C21.8965 10.6947 21.7404 12.5663 21.333 14.3907C20.7227 14.6151 20.08 14.7387 19.4301 14.7567C17.815 14.8206 16.2351 14.2736 15.0053 13.2246C13.7755 12.1757 12.9861 10.7019 12.7944 9.09695C12.1845 8.70692 11.5994 8.29198 11.0625 7.87703C11.0381 8.1448 11.0381 8.41423 11.0625 8.682C11.1287 10.1942 11.6161 11.6578 12.4698 12.9077C13.3235 14.1576 14.5095 15.144 15.894 15.7558ZM19.5022 16.4431C19.8954 16.4215 20.2867 16.3727 20.6732 16.297C20.1852 17.346 19.5512 17.9559 18.8691 18.0049C18.0882 18.029 17.3322 17.3176 16.7213 16.0779C17.6232 16.3498 18.5635 16.472 19.5048 16.4396L19.5022 16.4431Z" fill="#FFAB00"/>
</svg>
